<svg xmlns="http://www.w3.org/2000/svg" width="48" height="48"><path d="M41 24c0 9.398-7.602 17-17 17S7 33.398 7 24 14.602 7 24 7s17 7.602 17 17zm0 0" fill="#fff"/><path d="M21 41v-5.5c0-.3.2-.5.5-.5s.5.2.5.5V41h2v-6.5c0-.3.2-.5.5-.5s.5.2.5.5V41h2v-5.5c0-.3.2-.5.5-.5s.5.2.5.5V41h1.8c.2-.3.2-.602.2-1.102V36c0-2.2-1.898-5.2-4.3-5.2h-2.5c-2.302 0-4.302 3.098-4.302 5.2v3.898c0 .403.102.801.204 1.102zm0 0M40.102 26.398S38.8 26 37.699 26h-.097c-1.102 0-2.903.3-2.903.3-.097 0-.097 0-.097-.1 0-.098 0-.098.097-.098.102 0 2-.301 3.102-.301 1.097 0 2.398.398 2.5.398.097 0 .097.102.097.2-.199-.098-.199 0-.296 0zm0 0M39.8 27.2s-1.402-.4-2.6-.4c-.9 0-3 .2-3.098.2C34 27 34 27 34 26.898c0-.097 0-.097.102-.097.097 0 2.199-.2 3.097-.2 1.301 0 2.602.399 2.602.399.097 0 .097.102.097.2 0-.098 0 0-.097 0zm0 0M7.8 26.398c-.1 0-.1 0-.1-.097 0-.102 0-.102.1-.2.802-.203 2.4-.5 3.302-.5.796 0 3.5.2 3.597.2.102 0 .102.097.102.097 0 .102-.102.102-.102.102s-2.699-.2-3.5-.2c-1.097.2-2.597.4-3.398.598zm0 0M8.2 27.898s-.098 0-.098-.097v-.2c.097 0 1.398-.8 2.898-1 1.3-.203 4 .098 4.2.098.1 0 .1.102.1.102 0 .097-.1.097-.1.097s-2.802-.296-4.098-.097c-1.5.3-2.903 1.097-2.903 1.097zm0 0" fill="#455a64"/><path d="M14.2 23.5c0-4.398 4.6-8.5 10.3-8.5 5.7 0 10.3 4 10.3 8.5S31.5 31 24.5 31c-7 0-10.3-3.102-10.3-7.5zm0 0" fill="#455a64"/><path d="M28.602 16.3S30.3 14 33.398 14c1.204 1.2.403 4.8 0 5.8zm0 0M20.398 16.3S18.7 14 15.602 14c-1.204 1.2-.403 4.8 0 5.8zm0 0M20.102 35.898H17.3c-1.2 0-2.301-.5-2.801-1.5-.602-1.097-1.102-2.296-2.602-3.296-.296-.204-.097-.403.403-.403.5.102 1.398.2 2.097 1.102.704.898 1.5 2 2.801 2 1.301 0 2.7 0 3.5-.903zm0 0" fill="#455a64"/><path d="M24 4C13 4 4 13 4 24s9 20 20 20 20-9 20-20S35 4 24 4zm0 36c-8.8 0-16-7.2-16-16S15.2 8 24 8s16 7.2 16 16-7.2 16-16 16zm0 0" fill="#00bcd4"/></svg>