<svg xmlns="http://www.w3.org/2000/svg" width="48" height="48"><path d="M33 17c0 7.18-5.82 13-13 13S7 24.18 7 17 12.82 4 20 4s13 5.82 13 13zm0 0" fill="#64b5f6"/><path d="M13.102 18H12.8c-1.102-.2-1.903-1.2-1.7-2.3.598-3.9 3.7-7.098 7.598-7.598 1.102-.204 2.102.597 2.301 1.699.2 1.097-.602 2.097-1.7 2.3-2.198.297-3.902 2.098-4.198 4.2-.204 1-1 1.699-2 1.699zm0 0" fill="#bbdefb"/><path d="M43 26.5c0 5.246-4.254 9.5-9.5 9.5S24 31.746 24 26.5s4.254-9.5 9.5-9.5 9.5 4.254 9.5 9.5zm0 0" fill="#1e88e5"/><path d="M28.602 27H28.3c-.801-.2-1.301-1-1.2-1.8a6.396 6.396 0 0 1 5.098-5.098C33 19.898 33.801 20.5 34 21.3c.2.8-.398 1.597-1.2 1.8-1.402.297-2.402 1.399-2.698 2.7-.204.699-.801 1.199-1.5 1.199zm0 0" fill="#90caf9"/><path d="M23 38.5c0 3.04-2.46 5.5-5.5 5.5S12 41.54 12 38.5s2.46-5.5 5.5-5.5 5.5 2.46 5.5 5.5zm0 0" fill="#1e88e5"/><path d="M15.102 39h-.204a1.035 1.035 0 0 1-.796-1.2c.296-1.402 1.398-2.5 2.699-2.698.5-.102 1.097.199 1.199.796.102.602-.2 1.102-.8 1.204-.598.097-1 .597-1.2 1.199-.102.398-.5.699-.898.699zm0 0" fill="#90caf9"/></svg>